<?xml version="1.0" encoding="UTF-8"?>
<svg width="32px" height="32px" viewBox="0 0 32 32" version="1.1" xmlns="http://www.w3.org/2000/svg" xmlns:xlink="http://www.w3.org/1999/xlink">
    <defs></defs>
    <g id="Symbols" stroke="none" stroke-width="1" fill="none" fill-rule="evenodd">
        <g>
            <path d="M20,15.125 L12.1666667,15.125 L12.1666667,17 L20,17 L20,15.125 L20,15.125 Z M17,18.4166667 L12.1666667,18.4166667 L12.1666667,20.2916667 L17,20.2916667 L17,18.4166667 L17,18.4166667 Z M21.6666667,9.58333333 L20.875,9.58333333 L20.875,8 L19.2916667,8 L19.2916667,9.58333333 L12.9583333,9.58333333 L12.9583333,8 L11.375,8 L11.375,9.58333333 L10.5833333,9.58333333 C9.70458333,9.58333333 9.00791667,10.2958333 9.00791667,11.1666667 L9,22.25 C9,23.1208333 9.70458333,23.8333333 10.5833333,23.8333333 L21.6666667,23.8333333 C22.5375,23.8333333 23.25,23.1208333 23.25,22.25 L23.25,11.1666667 C23.25,10.2958333 22.5375,9.58333333 21.6666667,9.58333333 L21.6666667,9.58333333 Z M21.6666667,22.25 L10.5833333,22.25 L10.5833333,13.5416667 L21.6666667,13.5416667 L21.6666667,22.25 L21.6666667,22.25 Z" id="Shape" fill="#000"></path>
        </g>
    </g>
</svg>
